<?xml version="1.0" encoding="UTF-8"?>
<!-- Generator: Adobe Illustrator 21.1.0, SVG Export Plug-In . SVG Version: 6.00 Build 0)  -->
<svg version="1.1" id="Layer_1" xmlns="http://www.w3.org/2000/svg" xmlns:xlink="http://www.w3.org/1999/xlink" x="0px" y="0px" width="253px" height="20px" viewBox="0 0 253 18" style="enable-background:new 0 0 253 18;" xml:space="preserve">
<style type="text/css">
	.st0{fill:#FFFFFF;}
	.st1{fill:#017163;}
</style>
<defs>
<filter id="dropshadow" height="130%"> ==$0
<feGaussianBlur in="SourceAlpha" stdDeviation="3"/>
<feOffset dx="0.5" dy="0.5" result="offsetblur"/>
<feMerge>
<feMergeNode/>
<feMergeNode in="SourceGraphic"/>
</feMerge>
</filter>
</defs>
<path class="st0" d="M31.6,2.2c0,0.2,0,0.3,0,0.4c0,0.1,0,0.2-0.1,0.3c0,0.1-0.1,0.1-0.2,0.2h-0.1h-4.4v13.6c0,0.1,0,0.1-0.1,0.2  c0,0.1-0.1,0.1-0.2,0.1s-0.2,0.1-0.4,0.1s-0.3,0-0.5,0s-0.4,0-0.5,0S24.9,17,24.8,17s-0.2-0.1-0.2-0.1c0-0.1-0.1-0.1-0.1-0.2V3.1  h-4.4C20,3.1,20,3.1,20,3c-0.1,0-0.1-0.1-0.1-0.2s-0.1-0.2-0.1-0.3s0-0.3,0-0.4s0-0.3,0-0.4s0.1-0.2,0.1-0.3S20,1.3,20,1.2  c0.2,0.1,0.2,0.1,0.3,0.1h11c0.1,0,0.1,0,0.2,0.1c0.1,0,0.1,0.1,0.2,0.2c0,0.1,0.1,0.2,0.1,0.3C31.6,1.9,31.6,2,31.6,2.2z" filter="url(#dropshadow)"/>
<path class="st0" d="M45,16.7c0,0.1,0,0.1,0,0.2S44.9,17,44.8,17c-0.1,0-0.2,0.1-0.4,0.1s-0.4,0-0.6,0c-0.2,0-0.4,0-0.5,0  S43.1,17,43,17s-0.2-0.1-0.2-0.2c-0.1-0.1-0.1-0.2-0.1-0.3l-1.4-3.6c-0.2-0.4-0.4-0.8-0.5-1.1c-0.2-0.4-0.4-0.6-0.6-0.9  c-0.3-0.3-0.5-0.4-0.9-0.6c-0.4-0.2-0.8-0.2-1.2-0.2h-1.4v6.7c0,0.1,0,0.1-0.1,0.2c0,0.1-0.1,0.1-0.2,0.1s-0.2,0.1-0.4,0.1  s-0.3,0-0.5,0s-0.4,0-0.5,0c-0.2,0-0.3-0.1-0.4-0.1c-0.1,0-0.2-0.1-0.2-0.1c0-0.1-0.1-0.1-0.1-0.2V2.2c0-0.4,0.1-0.5,0.3-0.7  c0.3-0.1,0.4-0.2,0.7-0.2h3.3c0.4,0,0.7,0,1,0s0.5,0,0.7,0.1c0.6,0.1,1.1,0.3,1.6,0.5s0.9,0.5,1.1,0.9c0.4,0.3,0.6,0.7,0.8,1.1  s0.3,1,0.3,1.5S44,6.4,44,6.8c-0.2,0.4-0.4,0.8-0.6,1.1c-0.3,0.4-0.6,0.6-1,0.8C42,9,41.6,9.2,41.1,9.4c0.3,0.1,0.5,0.3,0.7,0.4  c0.2,0.2,0.4,0.4,0.6,0.6c0.2,0.3,0.4,0.5,0.5,0.9c0.2,0.4,0.4,0.7,0.5,1.1l1.4,3.4c0.1,0.3,0.2,0.5,0.2,0.6  C45,16.6,45,16.7,45,16.7z M41.8,5.7c0-0.6-0.2-1.1-0.4-1.6c-0.3-0.4-0.7-0.7-1.4-0.9C39.9,3.1,39.6,3,39.4,3c-0.3,0-0.6,0-1,0h-1.8  v5.3h2c0.5,0,1.1-0.1,1.4-0.2c0.4-0.2,0.7-0.4,1-0.5c0.3-0.3,0.4-0.5,0.6-0.9C41.8,6.4,41.8,6.1,41.8,5.7z" filter="url(#dropshadow)"/>
<path class="st0" d="M59.1,11.2c0,1-0.2,1.8-0.4,2.5c-0.3,0.7-0.7,1.4-1.1,1.8c-0.5,0.5-1.1,0.9-1.8,1.1c-0.7,0.3-1.6,0.4-2.5,0.4  s-1.7-0.1-2.4-0.4s-1.3-0.6-1.8-1.1c-0.5-0.4-0.9-1.1-1.1-1.8c-0.3-0.7-0.4-1.6-0.4-2.5V1.7c0-0.1,0-0.1,0.1-0.2  c0-0.1,0.1-0.1,0.2-0.1s0.2-0.1,0.4-0.1c0.1,0,0.3,0,0.5,0s0.4,0,0.5,0s0.3,0,0.4,0.1c0.1,0,0.1,0.1,0.2,0.1c0,0.1,0.1,0.1,0.1,0.2  V11c0,0.7,0.1,1.3,0.3,1.8s0.4,1,0.8,1.3c0.4,0.4,0.7,0.6,1.2,0.8c0.4,0.2,1,0.3,1.6,0.3s1.1-0.1,1.6-0.3c0.4-0.2,0.9-0.4,1.2-0.8  c0.4-0.4,0.5-0.8,0.7-1.3s0.3-1.1,0.3-1.8V1.7c0-0.1,0-0.1,0.1-0.2c0-0.1,0.1-0.1,0.2-0.1c0.1,0,0.2-0.1,0.4-0.1s0.3,0,0.5,0  s0.4,0,0.5,0c0.2,0,0.3,0,0.4,0.1c0.1,0,0.2,0.1,0.2,0.1c0,0.1,0.1,0.1,0.1,0.2v9.5H59.1z" filter="url(#dropshadow)"/>
<path class="st0" d="M70.9,12.6c0,0.7-0.2,1.4-0.4,1.9c-0.3,0.5-0.6,1.1-1.1,1.4c-0.4,0.4-1.1,0.7-1.7,0.9s-1.3,0.3-2,0.3  c-0.5,0-1,0-1.4-0.2c-0.4-0.1-0.8-0.2-1.1-0.4c-0.4-0.1-0.6-0.3-0.9-0.4c-0.3-0.2-0.4-0.3-0.5-0.4c-0.1-0.1-0.2-0.2-0.2-0.4  s-0.1-0.4-0.1-0.6c0-0.2,0-0.4,0-0.4c0-0.1,0-0.2,0.1-0.3c0-0.1,0.1-0.1,0.1-0.2c0.1,0,0.1,0,0.2,0c0.1,0,0.3,0.1,0.4,0.2  c0.2,0.2,0.4,0.3,0.8,0.4c0.4,0.2,0.7,0.4,1.1,0.4c0.4,0.2,1,0.2,1.6,0.2c0.4,0,0.9-0.1,1.2-0.2c0.4-0.1,0.7-0.3,1-0.5  s0.4-0.5,0.6-0.8c0.2-0.4,0.2-0.7,0.2-1.1c0-0.4-0.1-0.8-0.3-1.1c-0.2-0.4-0.4-0.6-0.8-0.8c-0.4-0.3-0.7-0.4-1.1-0.6  c-0.4-0.2-0.9-0.4-1.2-0.6c-0.6,0-1-0.3-1.4-0.5c-0.4-0.3-0.8-0.5-1.1-0.9s-0.6-0.7-0.8-1.1s-0.3-1-0.3-1.6s0.1-1.2,0.4-1.8  s0.5-1,1-1.2c0.4-0.4,0.9-0.6,1.5-0.8c0.5,0,1.1-0.1,1.8-0.1c0.4,0,0.7,0,1.1,0.1s0.7,0.2,1,0.3c0.3,0.1,0.6,0.2,0.8,0.4  c0.2,0.1,0.4,0.2,0.4,0.3s0.1,0.2,0.2,0.2c0,0,0.1,0.1,0.1,0.2c0,0.1,0,0.2,0,0.3s0,0.2,0,0.4s0,0.3,0,0.4c0,0.1,0,0.2-0.1,0.3  c0,0.1-0.1,0.1-0.1,0.2c0,0-0.1,0.1-0.2,0.1s-0.3-0.1-0.4-0.2c-0.2-0.1-0.4-0.3-0.7-0.4c-0.3-0.2-0.6-0.3-1-0.4  C67.3,3.1,66.8,3,66.4,3s-0.8,0.1-1.1,0.2c-0.4,0.1-0.6,0.3-0.8,0.4C64.3,3.8,64.1,4,64,4.3s-0.2,0.5-0.2,0.8c0,0.4,0.1,0.8,0.3,1.1  c0.2,0.4,0.4,0.6,0.8,0.8c0.4,0.3,0.7,0.4,1.1,0.6s0.9,0.4,1.3,0.6c0.4,0.2,0.9,0.4,1.3,0.7s0.8,0.5,1.1,0.9  c0.4,0.4,0.6,0.7,0.8,1.1C70.8,11.4,70.9,11.9,70.9,12.6z" filter="url(#dropshadow)"/>
<path class="st0" d="M83.9,2.2c0,0.2,0,0.3,0,0.4c0,0.1,0,0.2-0.1,0.3c0,0.1-0.1,0.1-0.2,0.2c-0.1,0-0.1,0-0.2,0H79v13.6  c0,0.1,0,0.1-0.1,0.2c0,0.1-0.1,0.1-0.2,0.1s-0.2,0.1-0.4,0.1s-0.3,0-0.5,0s-0.4,0-0.5,0c-0.2,0-0.3,0-0.4-0.1  c-0.1,0-0.2-0.1-0.2-0.1c0-0.1-0.1-0.1-0.1-0.2V3.1h-4.4c-0.1,0-0.1,0-0.2-0.1c-0.1,0-0.1-0.1-0.1-0.2S72,2.6,72,2.5s0-0.3,0-0.4  s0-0.3,0-0.4s0.1-0.2,0.1-0.3s0.1-0.1,0.1-0.2c0.2,0.1,0.3,0.1,0.4,0.1h10.9c0.1,0,0.1,0,0.2,0s0.1,0.1,0.2,0.2  c0,0.1,0.1,0.2,0.1,0.3C83.9,1.9,83.9,2,83.9,2.2z" filter="url(#dropshadow)"/>
<path class="st0" d="M96,5.9c0,0.8-0.1,1.5-0.4,2.1S95,9.1,94.5,9.6c-0.4,0.4-1.1,0.8-1.8,1.1C92,10.9,91.3,11,90.2,11h-1.8v5.6  c0,0.1,0,0.1-0.1,0.2c0,0.1-0.1,0.1-0.2,0.1S87.9,17,87.7,17c-0.2,0-0.3,0-0.5,0s-0.4,0-0.5,0s-0.3-0.1-0.4-0.1s-0.2-0.1-0.2-0.1  c0-0.1-0.1-0.1-0.1-0.2V2.2c0-0.4,0.1-0.5,0.3-0.7c0.4-0.1,0.5-0.2,0.7-0.2h3.3c0.4,0,0.7,0,1,0c0.4,0,0.7,0.1,1.1,0.2  s0.9,0.3,1.3,0.5s0.8,0.5,1.1,1c0.4,0.4,0.5,0.8,0.7,1.3C95.9,4.7,96,5.4,96,5.9z M93.8,6.1c0-0.6-0.1-1.1-0.4-1.6  c-0.3-0.4-0.5-0.8-0.9-1s-0.7-0.4-1.1-0.4s-0.8,0-1.1,0h-1.9v6.3h1.8c0.6,0,1.1-0.1,1.6-0.3s0.8-0.4,1.1-0.7  c0.3-0.3,0.5-0.6,0.6-1.1C93.7,7,93.8,6.6,93.8,6.1z" filter="url(#dropshadow)"/>
<path class="st0" d="M100.9,16.7c0,0.1,0,0.1-0.1,0.2c0,0.1-0.1,0.1-0.2,0.1s-0.2,0.1-0.4,0.1c-0.1,0-0.3,0-0.5,0s-0.4,0-0.5,0  C99.1,17,99,17,98.9,17s-0.2-0.1-0.2-0.1c0-0.1-0.1-0.1-0.1-0.2v-15c0-0.1,0-0.1,0.1-0.2c0-0.1,0.1-0.1,0.2-0.1s0.2-0.1,0.4-0.1  c0.2,0,0.3,0,0.4,0c0.2,0,0.4,0,0.5,0c0.2,0,0.3,0.1,0.4,0.1s0.2,0.1,0.2,0.1c0,0.1,0.1,0.1,0.1,0.2V16.7L100.9,16.7z" filter="url(#dropshadow)"/>
<path class="st0" d="M113,16.2c0,0.2,0,0.3,0,0.4s0,0.2-0.1,0.3c0,0.1-0.1,0.2-0.2,0.2s-0.1,0.1-0.2,0.1h-6.9  c-0.2,0-0.4-0.1-0.5-0.2c-0.2-0.1-0.3-0.4-0.3-0.7V1.7c0-0.1,0-0.1,0.1-0.2c0-0.1,0.1-0.1,0.2-0.1s0.2-0.1,0.4-0.1  c0.2,0,0.3,0,0.5,0s0.4,0,0.5,0s0.3,0.1,0.4,0.1s0.2,0.1,0.2,0.1c0,0.1,0.1,0.1,0.1,0.2v13.6h5.6c0.1,0,0.2,0,0.2,0.1  c0.1,0,0.1,0.1,0.2,0.2c0,0.1,0.1,0.2,0.1,0.3C113,15.9,113,16.1,113,16.2z" filter="url(#dropshadow)"/>
<path class="st0" d="M127.2,9c0,1.2-0.2,2.4-0.4,3.3c-0.3,1-0.7,1.8-1.3,2.5c-0.6,0.7-1.3,1.2-2.2,1.6s-1.9,0.5-3.1,0.5  c-1.1,0-2.1-0.2-3-0.5c-0.9-0.4-1.5-0.9-2.1-1.5c-0.5-0.6-1-1.5-1.2-2.5c-0.3-1-0.4-2.1-0.4-3.3s0.2-2.3,0.4-3.3s0.7-1.8,1.3-2.5  c0.6-0.7,1.3-1.2,2.2-1.6c0.9-0.4,1.9-0.5,3.1-0.5s2.1,0.2,3,0.5s1.5,0.9,2.1,1.5c0.5,0.6,1,1.5,1.2,2.4  C127.1,6.7,127.2,7.7,127.2,9z M125.1,9.1c0-0.9-0.1-1.7-0.3-2.5c-0.2-0.7-0.4-1.4-0.8-1.9s-0.9-1-1.4-1.3C122,3.1,121.3,3,120.4,3  s-1.6,0.2-2.2,0.5s-1.1,0.8-1.5,1.3s-0.6,1.2-0.8,1.9s-0.3,1.5-0.3,2.3c0,0.9,0.1,1.8,0.3,2.5c0.2,0.8,0.4,1.4,0.8,1.9  s0.8,1,1.4,1.3s1.3,0.4,2.3,0.4c0.9,0,1.7-0.2,2.3-0.5c0.6-0.4,1.1-0.8,1.5-1.3s0.6-1.2,0.8-1.9C125,10.8,125.1,10,125.1,9.1z" filter="url(#dropshadow)"/>
<path class="st0" d="M139.4,2.2c0,0.2,0,0.3,0,0.4c0,0.1,0,0.2-0.1,0.3c0,0.1-0.1,0.1-0.2,0.2c-0.1,0-0.1,0.1-0.2,0.1h-4.4v13.6  c0,0.1,0,0.1-0.1,0.2c0,0.1-0.1,0.1-0.2,0.1s-0.2,0.1-0.4,0.1s-0.3,0-0.5,0s-0.4,0-0.5,0s-0.3-0.1-0.4-0.1s-0.2-0.1-0.2-0.1  c0-0.1-0.1-0.1-0.1-0.2V3.1h-4.4c-0.1,0-0.1,0-0.2-0.1c-0.1,0-0.1-0.1-0.1-0.2s-0.1-0.2-0.1-0.3s0-0.3,0-0.4s0-0.3,0-0.4  s0.1-0.2,0.1-0.3s0.1-0.1,0.1-0.2c0.1,0,0.1-0.1,0.2-0.1h11c0.1,0,0.1,0,0.2,0.1c0.1,0,0.1,0.1,0.2,0.2c0,0.1,0.1,0.2,0.1,0.3  C139.4,1.9,139.4,2,139.4,2.2z" filter="url(#dropshadow)"/>
<path class="st0" d="M0.1,1.6v6.7c0,0,5,2.4,7.6,6.7c0,0,1.1-9.5,7.5-13.4C15.2,1.6,0.1,1.6,0.1,1.6z" filter="url(#dropshadow)"/>
<path class="st0" d="M0,13.8v3h6.8C6.9,16.7,4.2,14,0,13.8z M8.7,16.7h6.5V8.1C11.5,9,8.7,16.7,8.7,16.7z" filter="url(#dropshadow)"/>
<g>
	<path class="st1" d="M164.1,17.9h-12.2c-1.6,0-2.8-1.3-2.8-2.8V2.8c0-1.6,1.3-2.8,2.8-2.8h12.2c1.6,0,2.8,1.3,2.8,2.8V15   C167.1,16.7,165.8,17.9,164.1,17.9z"/>
	<polygon class="st0" points="158.1,3 159.6,7.3 163.9,7.3 160.4,9.9 161.4,14.2 158.1,11.6 154.6,14.2 155.8,9.9 152.2,7.3    156.4,7.3"/>
	<path class="st1" d="M185.8,17.9h-12.2c-1.6,0-2.8-1.3-2.8-2.8V2.8c0-1.6,1.3-2.8,2.8-2.8h12.2c1.6,0,2.8,1.3,2.8,2.8V15   C188.6,16.7,187.2,17.9,185.8,17.9z"/>
	<polygon class="st0" points="179.6,3 181.1,7.3 185.4,7.3 181.9,9.9 183.1,14.2 179.6,11.6 176.1,14.2 177.2,9.9 173.8,7.3    178.1,7.3  "/>
	<path class="st1" d="M207.1,17.9h-12.2c-1.6,0-2.8-1.3-2.8-2.8V2.8c0-1.6,1.3-2.8,2.8-2.8h12.2c1.6,0,2.8,1.3,2.8,2.8V15   C209.9,16.7,208.6,17.9,207.1,17.9z"/>
	<polygon class="st0" points="200.9,3 202.6,7.3 206.9,7.3 203.2,9.9 204.4,14.2 200.9,11.6 197.6,14.2 198.8,9.9 195.1,7.3    199.4,7.3"/>
	<path class="st1" d="M228.6,17.9h-12.2c-1.6,0-2.8-1.3-2.8-2.8V2.8c0-1.6,1.3-2.8,2.8-2.8h12.2c1.6,0,2.8,1.3,2.8,2.8V15   C231.4,16.7,230.1,17.9,228.6,17.9z"/>
	<polygon class="st0" points="222.4,3 224.1,7.3 228.4,7.3 224.8,9.9 225.9,14.2 222.4,11.6 219.1,14.2 220.1,9.9 216.6,7.3    220.9,7.3"/>
	<path class="st1" d="M250.1,17.9h-12.2c-1.6,0-2.8-1.3-2.8-2.8V2.8c0-1.6,1.3-2.8,2.8-2.8h12.2c1.6,0,2.8,1.3,2.8,2.8V15   C253,16.7,251.8,17.9,250.1,17.9z"/>
	<polygon class="st0" points="244,3 245.5,7.3 249.9,7.3 246.4,9.9 247.5,14.2 244,11.6 240.6,14.2 241.8,9.9 238.2,7.3 242.5,7.3"/>
</g>
</svg>